# xmcd
#
# Track frame offsets:
#	150
#	17288
#	35513
#	61388
#	84210
#	103950
#	119625
#	138000
#	181575
#	199988
#	211988
#	228450
#
# Disc length: 3303 seconds
#
# Revision: 1
# Processed by: cddbd v1.5.2PL0 Copyright (c) Steve Scherf et al.
# Submitted via: audiograbber 1.83.01
#
DISCID=9b0ce50c
DTITLE=Cowboy Warriors - Franconian Stand-Off: Ten Beerz 'Till Midnight
DYEAR=2016
DGENRE=Country Metal
TTITLE0=Cowboy Warriors
TTITLE1=The Forester
TTITLE2=Franconian Style
TTITLE3=Motörbike
TTITLE4=Ten Beerz
TTITLE5=Stinking Cows
TTITLE6=Metal Cowboys
TTITLE7=Scarecrow
TTITLE8=Back At The Pond
TTITLE9=Damage (On My Four-Wheel-Drive)
TTITLE10=Crazy Horse
TTITLE11=The Way Life Is Meant To Be
EXTD=All Music&Lyrics written by Cowboy Warriors\nCowboy Warriors are:\nEl Band
EXTD=ito (voc]\nFerdie Fast Finger (Guit]\nEl Floriachi (Guit]\nEl Dottore (Bas
EXTD=s]\nEl Fidel (Vio]\n\nwww.cowboy-warriors.de
EXTT0=
EXTT1=
EXTT2=
EXTT3=
EXTT4=
EXTT5=
EXTT6=
EXTT7=
EXTT8=
EXTT9=
EXTT10=
EXTT11=
PLAYORDER=
